<svg xmlns="http://www.w3.org/2000/svg" viewBox="0 0 1600 840" role="img" aria-label="Abstract audio waveform">
  <defs>
    <linearGradient id="bg" x1="0" y1="0" x2="1" y2="1">
      <stop offset="0" stop-color="#2b3e57"/>
      <stop offset="1" stop-color="#1b2838"/>
    </linearGradient>
    <linearGradient id="wave" x1="0" y1="0" x2="1" y2="0">
      <stop offset="0" stop-color="#f0904f"/>
      <stop offset="1" stop-color="#e57329"/>
    </linearGradient>
    <radialGradient id="glow" cx="0.5" cy="0.5" r="0.55">
      <stop offset="0" stop-color="#e57329" stop-opacity="0.24"/>
      <stop offset="1" stop-color="#e57329" stop-opacity="0"/>
    </radialGradient>
  </defs>
  <rect width="1600" height="840" fill="url(#bg)"/>
  <rect width="1600" height="840" fill="url(#glow)"/>
  <line x1="0" y1="420" x2="1600" y2="420" stroke="#ffffff" stroke-opacity="0.08" stroke-width="2"/>
  <g fill="url(#wave)">
    <!-- symmetric waveform bars around the centre line -->
    <rect x="120"  y="380" width="16" height="80"  rx="8"/>
    <rect x="164"  y="330" width="16" height="180" rx="8"/>
    <rect x="208"  y="270" width="16" height="300" rx="8"/>
    <rect x="252"  y="360" width="16" height="120" rx="8"/>
    <rect x="296"  y="200" width="16" height="440" rx="8"/>
    <rect x="340"  y="300" width="16" height="240" rx="8"/>
    <rect x="384"  y="140" width="16" height="560" rx="8"/>
    <rect x="428"  y="330" width="16" height="180" rx="8"/>
    <rect x="472"  y="250" width="16" height="340" rx="8"/>
    <rect x="516"  y="350" width="16" height="140" rx="8"/>
    <rect x="560"  y="180" width="16" height="480" rx="8"/>
    <rect x="604"  y="300" width="16" height="240" rx="8"/>
    <rect x="648"  y="90"  width="16" height="660" rx="8"/>
    <rect x="692"  y="290" width="16" height="260" rx="8"/>
    <rect x="736"  y="210" width="16" height="420" rx="8"/>
    <rect x="780"  y="360" width="16" height="120" rx="8"/>
    <rect x="824"  y="240" width="16" height="360" rx="8"/>
    <rect x="868"  y="170" width="16" height="500" rx="8"/>
    <rect x="912"  y="330" width="16" height="180" rx="8"/>
    <rect x="956"  y="120" width="16" height="600" rx="8"/>
    <rect x="1000" y="300" width="16" height="240" rx="8"/>
    <rect x="1044" y="220" width="16" height="400" rx="8"/>
    <rect x="1088" y="360" width="16" height="120" rx="8"/>
    <rect x="1132" y="200" width="16" height="440" rx="8"/>
    <rect x="1176" y="320" width="16" height="200" rx="8"/>
    <rect x="1220" y="260" width="16" height="320" rx="8"/>
    <rect x="1264" y="360" width="16" height="120" rx="8"/>
    <rect x="1308" y="240" width="16" height="360" rx="8"/>
    <rect x="1352" y="330" width="16" height="180" rx="8"/>
    <rect x="1396" y="290" width="16" height="260" rx="8"/>
    <rect x="1440" y="370" width="16" height="100" rx="8"/>
  </g>
  <g opacity="0.5" fill="#ffffff">
    <rect x="120" y="700" width="1336" height="4" rx="2" fill-opacity="0.1"/>
    <circle cx="648" cy="702" r="12" fill="#e57329"/>
  </g>
</svg>
